<?xml version="1.0" encoding="utf-8"?>
<!-- Generator: Adobe Illustrator 18.0.0, SVG Export Plug-In . SVG Version: 6.00 Build 0)  -->
<!DOCTYPE svg PUBLIC "-//W3C//DTD SVG 1.1//EN" "http://www.w3.org/Graphics/SVG/1.1/DTD/svg11.dtd">
<svg version="1.1" id="Layer_1" xmlns="http://www.w3.org/2000/svg" xmlns:xlink="http://www.w3.org/1999/xlink" x="0px" y="0px"
	 width="100px" height="44px" viewBox="0 0 100 44" enable-background="new 0 0 100 44" xml:space="preserve">
<g>
	<g id="CONTAINER">
		<polygon points="0,32.1 7.7,39.8 99.1,39.8 99.1,0 0,0 		"/>
	</g>
	<g id="LOCKUP_10_">
		<g>
			<g>
				<path fill="#FFFFFF" d="M10.4,12.4L7.9,8.6l0,3.8l-0.8,0l0-5.4l0.8,0l2.5,3.8l0-3.8l0.8,0l0,5.4L10.4,12.4z"/>
				<path fill="#FFFFFF" d="M14.3,12.4l-0.6,0L11.9,7l0.8,0l1.2,3.9L15.2,7l0.9,0L14.3,12.4z"/>
				<path fill="#FFFFFF" d="M16.8,12.4l0-5.4l0.8,0l0,5.4L16.8,12.4z"/>
				<path fill="#FFFFFF" d="M22.3,11.9c-0.3,0.3-0.8,0.5-1.4,0.5l-1.9,0L19,7l1.9,0c0.6,0,1.1,0.2,1.4,0.5c0.6,0.6,0.5,1.4,0.5,2.2
					C22.9,10.4,22.9,11.3,22.3,11.9z M21.8,8.1c-0.2-0.3-0.5-0.4-0.9-0.4l-1,0l0,3.9l1,0c0.4,0,0.7-0.1,0.9-0.4
					c0.3-0.3,0.3-0.9,0.3-1.6C22.1,8.9,22,8.4,21.8,8.1z"/>
				<path fill="#FFFFFF" d="M24.1,12.4l0-5.4l0.8,0l0,5.4L24.1,12.4z"/>
				<path fill="#FFFFFF" d="M29.4,12.4L29,11.3l-2.1,0l-0.4,1.1l-0.9,0l2-5.4l0.7,0l2,5.4L29.4,12.4z M28,8.2l-0.8,2.4l1.7,0L28,8.2
					z"/>
			</g>
			<path id="Reg_20_" fill="#FFFFFF" d="M29.9,7.5l0-0.1H30c0,0,0.1,0,0.1,0.1c0,0.1,0,0.1-0.1,0.1L29.9,7.5 M29.9,7.6L29.9,7.6
				l0.2,0.2h0.2l-0.2-0.3c0.1,0,0.1,0,0.1-0.2c0-0.1-0.1-0.2-0.2-0.2l-0.2,0l0,0.6l0.1,0L29.9,7.6 M30.5,7.5C30.5,7.2,30.3,7,30,7
				c-0.3,0-0.6,0.2-0.6,0.5c0,0.3,0.3,0.5,0.6,0.5C30.3,8.1,30.5,7.9,30.5,7.5 M30.4,7.5C30.4,7.8,30.2,8,30,8v0
				c-0.2,0-0.4-0.2-0.4-0.4c0-0.3,0.2-0.4,0.4-0.4C30.2,7.1,30.4,7.3,30.4,7.5z"/>
		</g>
		<path fill="#FFFFFF" d="M14,27.9v3.5V27.9h-3.6v1.5h2v1.3c0,0.2-0.2,0.4-0.4,0.4H9.6c-0.1,0-0.2,0-0.3-0.1l-0.4-0.4
			c-0.1-0.1-0.1-0.2-0.1-0.3v-3.7c0-0.2,0.2-0.4,0.4-0.4h4.6v-1.7H8.4c-0.8,0-1.4,0.6-1.4,1.4V31c0,0.1,0,0.2,0.1,0.3l1.4,1.4
			c0.1,0.1,0.2,0.1,0.3,0.1h3.7c0.8,0,1.4-0.6,1.4-1.4V27.9z M29.6,32.8l-2.9-4.5l2.5-3.9h-1.9l-1.5,2.4l-1.5-2.4h-1.9l2.5,3.9
			l-2.9,4.5h1.9l2-3l2,3H29.6z M21.2,24.4h-5.9v1.7h2.1v6.7h1.7v-6.7h2.1V24.4z M14,21.2c0,0.8-0.6,1.4-1.4,1.4H8.9
			c-0.1,0-0.2-0.1-0.3-0.1l-1.4-1.4C7.1,21,7,20.9,7.1,20.8v-5.1c0-0.8,0.6-1.4,1.4-1.4h5.3v1.7H9.1c-0.2,0-0.4,0.2-0.4,0.4v3.7
			c0,0.1,0,0.2,0.1,0.3l0.4,0.4C9.4,20.9,9.5,21,9.6,21h2.3c0.2,0,0.4-0.2,0.4-0.4v-1.3h-2v-1.5H14V21.2v-3.5V21.2z M21.3,15.9v-1.7
			h-5.9v8.4h5.9V21h-4.2v-1.7h3.4v-1.5h-3.4v-1.8H21.3z M58.5,15.9v-1.7h-5.9v8.4h5.9V21h-4.2v-1.7h3.4v-1.5h-3.4v-1.8H58.5z
			 M28.5,15.9v-1.7h-5.9v8.4h1.7v-3.4h3.3v-1.5h-3.3v-1.8H28.5z M43,22.6l-1.8-3.4h-1.8v3.4h-1.7v-8.4h5c0.8,0,1.4,0.6,1.4,1.4v2.2
			c0,0.7-0.6,1.4-1.3,1.4l1.8,3.4H43z M39.4,17.7H42c0.2,0,0.4-0.2,0.4-0.4v-0.9c0-0.2-0.2-0.4-0.4-0.4h-2.7V17.7z M35,14.3
			c0.8,0,1.4,0.6,1.4,1.4v5.6c0,0.8-0.6,1.4-1.4,1.4h-4.2c-0.8,0-1.4-0.6-1.4-1.4v-5.6c0-0.8,0.6-1.4,1.4-1.4H35 M34.7,16.3
			c0-0.2-0.2-0.4-0.4-0.4h-2.8c-0.2,0-0.4,0.2-0.4,0.4v4.2c0,0.2,0.2,0.4,0.4,0.4h2.8c0.2,0,0.4-0.2,0.4-0.4V16.3z M47.6,21
			c-0.2,0-0.4-0.2-0.4-0.4v-4.2c0-0.2,0.2-0.4,0.4-0.4h3.8v-1.7h-4.5c-0.8,0-1.4,0.6-1.4,1.4v5.6c0,0.8,0.6,1.4,1.4,1.4h4.5V21H47.6
			z"/>
		<path id="Reg_19_" fill="#FFFFFF" d="M60.4,15.1v-0.3h0.2c0.1,0,0.2,0,0.2,0.1c0,0.1-0.1,0.1-0.2,0.1H60.4 M60.4,15.3h0.1l0.3,0.5
			l0.3,0l-0.3-0.5c0.2,0,0.3-0.1,0.3-0.3c0-0.3-0.2-0.3-0.5-0.3h-0.4l0,1.1h0.2L60.4,15.3 M61.6,15.2c0-0.6-0.5-1-1.1-1
			c-0.6,0-1.1,0.4-1.1,1c0,0.6,0.5,1,1.1,1C61.1,16.3,61.6,15.9,61.6,15.2 M61.3,15.2c0,0.5-0.3,0.8-0.8,0.8v0
			c-0.4,0-0.8-0.3-0.8-0.8c0-0.5,0.3-0.8,0.8-0.8C61,14.4,61.3,14.8,61.3,15.2z"/>
	</g>
	<g id="CLAW">
		<path fill="none" d="M76.4,26.8C76.4,26.8,76.4,26.8,76.4,26.8C76.4,26.8,76.4,26.8,76.4,26.8z"/>
		<path fill="none" d="M93.7,27.9c0,0,0-0.2,0-0.3c-0.1,1-0.2,3.9,0.2,8.2c0,0,0,0,0,0c0,0.1,0,0.1,0,0.2c-4.5-3.9-5.8-9.4-5.8-9.4
			c0-0.2,0.1-1,0.2-1.1c0,0.2,0.1,0.4,0.1,0.6c-0.1-0.4-0.1-0.6-0.1-0.6c3.6-3,7.3-4.8,10.8-5.9v-3.7c-8.5,1.1-15.5,6.2-17.3,7.5
			c0.8,2.8,3.8,11,10.9,16.4h6.4V24.2C96.4,25.6,94.4,27.3,93.7,27.9z"/>
		<path fill="none" d="M77,27.8C77,27.8,77,27.8,77,27.8C77,27.8,77,27.8,77,27.8z"/>
		<path fill="none" d="M97.6,15.8c0.2,0,0.3,0,0.5-0.1C97.9,15.8,97.7,15.8,97.6,15.8z"/>
		<path fill="none" d="M99.1,15.6c-0.3,0-0.6,0.1-1,0.1C98.5,15.7,98.8,15.6,99.1,15.6L99.1,15.6z"/>
		<path fill="#FFFFFF" d="M76.4,26.8c0.2,0.3,0.4,0.7,0.6,1c0,0,0,0,0,0c2.9,4.9,6.7,8.9,10.5,12h5.3c-7.1-5.4-10.1-13.6-10.9-16.4
			c-0.2-0.6-0.3-1-0.3-1s6.9-5.3,16-6.6c0.2,0,0.3,0,0.5-0.1c0,0,0.1,0,0.1,0c0.3,0,0.6-0.1,1-0.1v-3.9c-11.7-0.5-22,4.1-25.9,7.5
			l0,0c0.2,0.8,0.5,1.5,0.7,2.3C74.7,23.4,75.5,25.1,76.4,26.8C76.4,26.8,76.4,26.8,76.4,26.8z"/>
		<path fill="#FFFFFF" d="M72.7,39.8h8.7c-4.2-3.3-7.9-7.2-10.6-11.4c-1.6,0.7-6.2,0.9-8.4,1.9l0,0.1c0,0,0,0,0,0
			C65.1,33.2,68.3,36.7,72.7,39.8z"/>
		<path fill="#FFFFFF" d="M88.5,26c0.4,1.5,1.8,6,5.4,9.8c0,0,0,0,0,0c-0.4-4.3-0.3-7.2-0.2-8.2c0-0.3,0-0.4,0-0.4s2.1-1.7,5.4-3.2
			v-4.4c-3.5,1.1-7.3,2.9-10.8,5.9C88.3,25.5,88.4,25.7,88.5,26z"/>
	</g>
	<polygon id="BOTTOM_BAR" fill="#1C1C1A" points="0,34.5 6.8,41.3 99.1,41.3 99.1,44 5.6,44 0,38.4 0,34.5 	"/>
</g>
</svg>
