<?xml version="1.0" encoding="utf-8"?>
<!-- Generator: Adobe Illustrator 18.0.0, SVG Export Plug-In . SVG Version: 6.00 Build 0)  -->
<!DOCTYPE svg PUBLIC "-//W3C//DTD SVG 1.1//EN" "http://www.w3.org/Graphics/SVG/1.1/DTD/svg11.dtd">
<svg version="1.1" id="Layer_1" xmlns="http://www.w3.org/2000/svg" xmlns:xlink="http://www.w3.org/1999/xlink" x="0px" y="0px"
	 width="200px" height="44px" viewBox="0 0 200 44" enable-background="new 0 0 200 44" xml:space="preserve">
<g>
	<g>
		<polygon fill="#FFFFFF" points="23.5,21.7 46.7,21.7 46.7,1.2 23.5,4.4 		"/>
		<polygon fill="#FFFFFF" points="22.8,21.7 22.8,4.5 5,7 5,21.7 		"/>
		<polygon fill="#FFFFFF" points="22.8,22.4 5,22.4 5,37 22.8,39.5 		"/>
		<polygon fill="#FFFFFF" points="23.5,22.4 23.5,39.6 46.7,42.8 46.7,22.4 		"/>
	</g>
	<g>
		<g>
			<path fill="#FFFFFF" d="M91.6,9.5l-7.1,25h-3.4l-5.6-19.8h-0.1l-5.6,19.8h-3.4l-7.3-25h3.2l5.8,20.9h0.1l6-20.9h2.8l5.7,21h0.1
				l5.6-21H91.6z"/>
			<path fill="#FFFFFF" d="M96.8,34.5H94V16.6h2.9V34.5z"/>
			<path fill="#FFFFFF" d="M115.9,34.5h-2.9V24.3c0-3.8-1.4-5.7-4.2-5.7c-1.4,0-2.6,0.5-3.5,1.6c-0.9,1.1-1.4,2.4-1.4,4.1v10.2h-2.9
				V16.6h2.9v3h0.1c1.3-2.3,3.3-3.4,5.9-3.4c2,0,3.5,0.6,4.5,1.9c1,1.3,1.5,3.1,1.5,5.4V34.5z"/>
			<path fill="#FFFFFF" d="M135.7,34.5h-2.9v-3h-0.1c-1.3,2.3-3.4,3.5-6.1,3.5c-2.3,0-4.1-0.8-5.4-2.4c-1.3-1.6-2-3.8-2-6.5
				c0-3,0.7-5.3,2.2-7.1c1.5-1.8,3.5-2.7,6-2.7c2.4,0,4.2,1,5.4,2.9h0.1V8h2.9V34.5z M132.8,26.4v-2.6c0-1.5-0.5-2.7-1.5-3.7
				c-1-1-2.2-1.5-3.6-1.5c-1.7,0-3.1,0.6-4.1,1.9c-1,1.3-1.5,3-1.5,5.3c0,2,0.5,3.7,1.4,4.9c1,1.2,2.2,1.8,3.9,1.8
				c1.6,0,2.9-0.6,3.9-1.7C132.3,29.6,132.8,28.2,132.8,26.4z"/>
			<path fill="#FFFFFF" d="M156.9,25.5c0,2.8-0.8,5.1-2.4,6.8c-1.6,1.7-3.8,2.6-6.5,2.6c-2.6,0-4.7-0.8-6.3-2.5
				c-1.6-1.7-2.4-3.9-2.4-6.6c0-3,0.8-5.3,2.4-7c1.6-1.7,3.8-2.6,6.7-2.6c2.7,0,4.7,0.8,6.2,2.5C156.1,20.3,156.9,22.6,156.9,25.5z
				 M154,25.6c0-2.2-0.5-4-1.5-5.2c-1-1.2-2.4-1.8-4.3-1.8c-1.8,0-3.3,0.6-4.4,1.8c-1.1,1.2-1.6,3-1.6,5.2c0,2.1,0.5,3.8,1.6,5
				c1.1,1.2,2.5,1.8,4.4,1.8c1.9,0,3.3-0.6,4.3-1.8C153.5,29.5,154,27.8,154,25.6z"/>
			<path fill="#FFFFFF" d="M182.9,16.6l-5.4,17.9h-3l-4-13.9h-0.1l-4.3,13.9h-2.9l-5.4-17.9h3l3.9,14.4h0.1l4.4-14.4h2.6l4,14.4h0.1
				l3.9-14.4H182.9z"/>
			<path fill="#FFFFFF" d="M195,29.7c0,1.5-0.6,2.8-1.8,3.8c-1.2,1-2.8,1.4-4.8,1.4c-1.7,0-3.2-0.4-4.4-1.1v-3.1
				c1.4,1.1,3,1.7,4.6,1.7c2.3,0,3.4-0.8,3.4-2.5c0-0.7-0.2-1.2-0.7-1.6c-0.4-0.4-1.4-1-3-1.7c-1.6-0.7-2.7-1.4-3.3-2.2
				c-0.7-0.8-1-1.8-1-3.1c0-1.5,0.6-2.7,1.8-3.7c1.2-1,2.7-1.5,4.5-1.5c1.4,0,2.7,0.3,3.8,0.8v2.9c-1.2-0.8-2.5-1.3-4-1.3
				c-0.9,0-1.7,0.2-2.3,0.7c-0.6,0.5-0.9,1.1-0.9,1.8c0,0.8,0.2,1.4,0.7,1.8c0.4,0.4,1.4,0.9,2.7,1.5c1.7,0.7,2.9,1.5,3.6,2.3
				C194.7,27.5,195,28.5,195,29.7z"/>
		</g>
		<g>
			<path fill="#FFFFFF" d="M97.2,10.8c0,0.5-0.2,1-0.6,1.3c-0.4,0.4-0.8,0.5-1.3,0.5c-0.5,0-1-0.2-1.3-0.5c-0.4-0.3-0.5-0.8-0.5-1.4
				c0-0.5,0.2-0.9,0.5-1.3c0.4-0.4,0.8-0.5,1.3-0.5c0.5,0,1,0.2,1.3,0.5C97.1,9.8,97.2,10.2,97.2,10.8z"/>
		</g>
	</g>
</g>
</svg>
